<svg id="svg" version="1.1" xmlns="http://www.w3.org/2000/svg" xmlns:xlink="http://www.w3.org/1999/xlink" width="400" height="416.9050715214565" viewBox="0, 0, 400,416.9050715214565"><g id="svgg"><path id="path0" d="M154.988 12.579 C 148.055 14.449,145.668 23.370,150.651 28.795 C 151.728 29.968,151.824 30.201,152.347 32.900 C 153.388 38.272,155.093 42.471,158.018 46.865 C 158.952 48.267,159.763 49.415,159.820 49.415 C 159.878 49.415,161.012 48.936,162.341 48.352 L 164.757 47.288 165.459 48.129 C 168.183 51.393,169.407 57.562,168.165 61.769 C 164.371 74.612,147.288 79.262,135.935 70.543 C 135.101 69.902,134.330 69.480,134.222 69.605 C 127.784 76.992,121.689 90.167,119.545 101.329 C 118.704 105.710,117.778 115.215,118.192 115.215 C 118.273 115.215,120.533 113.944,123.214 112.392 C 143.073 100.891,161.450 94.324,182.257 91.294 C 190.590 90.081,192.235 90.101,201.170 91.529 C 208.893 92.764,211.610 93.289,215.501 94.299 C 217.489 94.815,220.228 95.517,221.586 95.859 C 222.945 96.202,224.701 96.766,225.488 97.113 C 226.274 97.461,228.966 98.472,231.469 99.360 C 236.768 101.241,239.128 102.154,242.003 103.437 C 244.563 104.580,259.306 112.428,261.920 114.040 C 264.379 115.556,264.274 115.622,264.102 112.679 C 263.165 96.638,258.581 83.703,249.491 71.456 L 247.802 69.180 246.493 70.357 C 242.116 74.292,234.268 75.925,227.720 74.264 C 215.883 71.262,210.109 59.188,215.953 49.659 C 216.430 48.881,217.541 47.065,218.422 45.623 C 221.033 41.348,223.009 35.955,223.545 31.638 C 223.711 30.297,223.871 29.978,224.891 28.958 C 232.327 21.523,224.034 8.905,214.518 13.176 C 209.034 15.637,207.284 24.135,211.379 28.416 L 212.066 29.134 211.480 31.147 C 210.305 35.180,205.966 42.796,204.528 43.348 C 204.340 43.420,202.689 43.264,200.858 43.001 C 193.627 41.963,182.915 42.424,175.429 44.094 L 172.575 44.731 171.054 43.237 C 168.242 40.475,165.985 36.593,164.348 31.707 L 163.569 29.383 164.480 28.190 C 170.069 20.872,163.613 10.254,154.988 12.579 M107.883 122.281 C 100.457 127.812,90.801 135.937,87.660 139.297 L 85.984 141.090 87.270 141.307 C 96.500 142.863,104.291 139.732,108.421 132.808 C 110.107 129.980,110.521 128.374,111.266 121.782 C 111.530 119.449,111.723 119.420,107.883 122.281 M271.139 122.302 C 271.901 131.737,276.326 138.115,284.048 140.909 C 286.891 141.938,295.969 141.894,295.969 140.852 C 295.969 139.499,272.951 120.156,271.341 120.156 C 271.030 120.156,270.995 120.526,271.139 122.302 M147.724 124.690 C 127.929 128.883,126.873 157.285,146.306 162.854 C 159.163 166.538,170.847 156.590,170.287 142.435 C 169.834 130.967,158.855 122.333,147.724 124.690 M227.192 124.730 C 214.965 127.465,208.519 140.705,213.772 152.290 C 220.761 167.704,242.439 167.126,248.809 151.356 C 254.596 137.028,241.934 121.432,227.192 124.730 M187.715 152.438 C 179.363 177.394,168.827 196.203,151.388 217.292 C 138.579 232.782,118.385 249.738,100.455 260.056 C 99.322 260.708,98.570 261.312,98.570 261.568 C 98.570 262.194,100.832 264.254,102.475 265.124 C 103.260 265.540,103.935 265.905,103.976 265.936 C 104.017 265.967,104.798 268.206,105.712 270.912 C 114.834 297.927,133.020 317.253,158.892 327.429 C 161.101 328.297,163.091 329.167,163.314 329.361 C 165.298 331.089,186.281 333.953,194.018 333.552 C 202.124 333.133,216.547 330.831,217.850 329.750 C 218.033 329.598,218.323 329.561,218.494 329.667 C 218.675 329.778,218.738 329.749,218.644 329.598 C 218.551 329.446,220.180 328.704,222.527 327.830 C 248.774 318.051,268.121 297.541,277.113 269.961 C 278.256 266.454,278.173 266.571,279.855 266.140 C 281.872 265.624,283.938 264.507,284.952 263.384 L 285.871 262.367 285.000 261.776 C 284.522 261.451,282.434 260.215,280.362 259.031 C 271.189 253.790,262.612 247.586,251.625 238.246 C 225.831 216.318,201.918 179.555,193.384 148.705 C 191.868 143.224,191.771 142.904,191.477 142.379 C 191.290 142.044,190.374 144.491,187.715 152.438 M66.483 163.426 C 60.301 171.344,53.147 182.880,47.785 193.581 C 46.651 195.844,45.788 197.760,45.866 197.839 C 46.245 198.217,52.968 198.506,54.793 198.222 C 69.516 195.933,78.114 177.227,70.171 164.762 C 69.715 164.046,69.081 162.961,68.763 162.353 L 68.184 161.247 66.483 163.426 M312.248 164.954 C 305.424 178.780,311.559 193.865,325.618 197.832 C 327.203 198.280,336.342 198.465,336.749 198.058 C 337.932 196.876,316.085 161.508,314.172 161.508 C 314.049 161.508,313.184 163.059,312.248 164.954 M101.544 164.100 C 94.243 166.014,90.557 172.883,92.851 180.299 C 96.133 190.910,112.141 190.901,115.717 180.286 C 118.827 171.054,110.646 161.712,101.544 164.100 M275.683 163.980 C 267.963 165.719,264.161 173.407,267.230 181.072 C 272.301 193.740,291.084 188.927,290.176 175.192 C 289.680 167.676,282.822 162.371,275.683 163.980 M137.061 185.582 C 129.985 187.110,125.898 193.629,127.570 200.720 C 130.802 214.429,151.321 212.100,151.362 198.020 C 151.385 189.945,144.517 183.972,137.061 185.582 M241.092 185.581 C 235.007 186.893,231.168 191.406,231.151 197.269 C 231.121 206.884,239.998 212.874,248.287 208.833 C 260.863 202.702,254.660 182.657,241.092 185.581 M95.848 210.678 C 80.820 213.011,75.128 231.553,86.099 242.438 C 95.482 251.749,111.107 247.592,115.428 234.634 C 119.624 222.050,108.698 208.682,95.848 210.678 M279.772 211.071 C 260.054 215.848,262.633 246.139,282.853 247.259 C 294.077 247.881,301.845 240.238,301.807 228.609 C 301.769 216.641,291.269 208.285,279.772 211.071 M47.897 220.417 C 40.250 223.070,37.032 230.559,40.463 237.718 C 45.947 249.162,63.175 245.306,63.196 232.629 C 63.211 223.728,55.680 217.717,47.897 220.417 M327.775 220.381 C 320.142 222.915,316.902 231.110,320.709 238.254 C 325.229 246.734,337.614 246.468,341.952 237.798 C 346.782 228.145,337.764 217.066,327.775 220.381 M187.516 237.753 L 187.516 254.960 181.079 254.789 C 177.539 254.695,169.815 254.617,163.914 254.617 L 153.186 254.616 153.186 237.581 L 153.186 220.546 170.351 220.546 L 187.516 220.546 187.516 237.753 M229.129 237.711 L 229.129 254.876 223.472 254.876 C 220.361 254.876,212.637 254.798,206.307 254.704 L 194.798 254.532 194.798 237.539 L 194.798 220.546 211.964 220.546 L 229.129 220.546 229.129 237.711 M187.516 279.844 L 187.516 297.009 170.523 297.009 L 153.529 297.009 153.358 291.352 C 153.135 283.969,153.136 263.076,153.359 262.852 C 153.455 262.757,161.179 262.679,170.524 262.679 L 187.516 262.679 187.516 279.844 M229.129 279.846 L 229.129 297.013 212.029 296.946 L 194.928 296.879 194.862 279.779 L 194.795 262.679 211.962 262.679 L 229.129 262.679 229.129 279.846 M145.647 335.285 C 142.768 336.779,142.116 339.515,143.676 343.554 C 144.913 346.757,144.892 346.799,142.547 345.865 C 135.447 343.036,128.733 344.326,123.702 349.486 L 122.177 351.051 120.296 350.158 C 117.105 348.643,114.023 348.677,110.103 350.272 L 108.763 350.818 107.189 349.554 C 103.540 346.625,100.160 346.290,95.063 348.351 L 91.946 349.611 89.861 349.394 C 85.589 348.950,80.444 349.125,78.023 349.796 C 76.232 350.293,75.123 350.416,72.172 350.444 C 70.169 350.463,67.930 350.574,67.196 350.691 L 65.862 350.904 65.279 349.119 C 63.291 343.034,58.436 338.662,52.016 337.173 C 49.102 336.497,36.683 336.308,34.358 336.904 C 29.907 338.044,28.959 340.992,31.175 346.801 C 34.286 354.953,34.615 367.970,31.977 378.477 C 30.209 385.513,31.777 387.208,40.572 387.770 C 48.059 388.247,50.594 387.730,52.162 385.404 L 52.958 384.223 54.762 386.972 C 62.925 399.405,69.773 404.144,80.238 404.602 C 96.517 405.315,106.684 397.346,103.293 386.533 L 102.780 384.900 103.622 384.008 C 105.343 382.183,108.629 381.776,110.663 383.136 L 111.963 384.005 115.894 384.005 L 119.825 384.005 121.001 385.089 C 124.744 388.535,129.694 389.579,135.378 388.119 C 137.138 387.667,137.678 387.626,138.825 387.861 C 139.811 388.063,141.241 388.055,144.020 387.831 C 146.303 387.647,149.643 387.586,152.276 387.681 C 155.458 387.795,157.134 387.745,158.257 387.502 C 160.332 387.054,161.126 387.066,166.320 387.623 C 169.677 387.982,171.399 388.045,173.472 387.883 C 174.974 387.766,178.368 387.659,181.014 387.646 C 186.768 387.618,187.650 387.410,189.345 385.680 L 190.524 384.477 192.042 385.857 C 194.197 387.815,194.595 387.910,200.520 387.886 C 205.066 387.867,205.713 387.809,206.762 387.328 C 207.800 386.852,208.275 386.807,210.958 386.929 C 213.342 387.037,214.245 386.977,215.221 386.644 C 216.342 386.262,216.620 386.259,218.146 386.613 C 219.290 386.878,220.374 386.948,221.520 386.831 C 223.060 386.673,223.331 386.724,224.586 387.403 L 225.963 388.147 228.415 387.838 C 233.082 387.248,238.560 385.397,240.182 383.860 C 241.719 382.405,245.193 381.708,246.231 382.648 C 247.547 383.839,250.855 384.489,253.767 384.128 C 255.784 383.878,255.784 383.878,256.019 385.876 C 256.437 389.431,258.630 391.164,262.263 390.811 C 266.176 390.430,271.775 388.833,272.952 387.762 C 273.238 387.502,274.408 387.037,275.553 386.729 C 276.697 386.421,278.598 385.653,279.776 385.022 L 281.919 383.875 283.347 385.169 C 286.984 388.462,291.304 389.562,295.969 388.381 C 297.225 388.063,298.961 387.946,302.731 387.925 C 308.271 387.893,310.275 387.554,312.153 386.329 C 313.284 385.590,314.188 385.547,317.228 386.084 C 319.121 386.419,321.712 386.307,322.148 385.871 C 322.193 385.826,322.853 386.393,323.615 387.131 C 325.018 388.490,326.222 388.983,329.324 389.468 C 330.290 389.619,330.299 389.632,330.304 390.844 C 330.344 401.804,342.454 406.692,358.388 402.177 C 370.443 398.762,374.649 386.774,366.743 378.363 L 365.217 376.739 366.557 374.781 C 369.874 369.931,370.415 362.664,367.777 358.388 C 367.556 358.030,366.938 357.148,366.403 356.427 L 365.430 355.117 365.838 353.566 C 369.236 340.634,349.650 336.188,345.525 348.955 C 344.948 350.739,344.522 351.176,342.653 351.902 C 341.795 352.236,340.258 353.012,339.239 353.627 C 336.940 355.016,337.313 355.078,335.097 352.930 C 331.098 349.052,325.204 347.911,319.636 349.938 C 318.071 350.507,317.084 350.673,314.646 350.778 L 311.607 350.908 309.930 349.231 C 303.014 342.314,290.050 343.048,284.853 350.650 C 283.437 352.722,283.718 352.646,282.079 351.395 C 279.426 349.371,276.596 348.388,272.607 348.105 C 270.052 347.924,269.954 347.895,270.124 347.365 C 272.787 339.035,269.690 336.784,258.127 338.647 C 253.161 339.448,251.518 341.823,252.661 346.554 C 253.261 349.040,253.337 348.926,250.932 349.127 C 249.428 349.252,248.284 349.534,247.018 350.090 L 245.228 350.875 243.454 349.560 C 239.322 346.498,235.807 346.210,230.914 348.535 L 228.631 349.621 226.474 349.398 C 222.398 348.977,217.546 349.144,214.824 349.799 C 212.920 350.257,211.489 350.405,208.583 350.442 C 206.508 350.469,204.324 350.584,203.728 350.698 L 202.645 350.905 201.674 349.442 C 200.051 346.997,199.563 346.814,194.668 346.814 C 192.380 346.814,189.946 346.910,189.259 347.027 L 188.011 347.240 188.089 343.891 C 188.221 338.181,186.814 336.798,180.669 336.599 C 169.794 336.246,167.643 338.052,169.352 346.099 C 169.663 347.565,169.853 348.829,169.774 348.908 C 169.658 349.024,165.810 348.406,163.160 347.846 C 162.625 347.733,162.601 347.594,162.616 344.670 C 162.642 339.350,162.376 339.056,155.267 336.544 C 149.705 334.578,147.553 334.297,145.647 335.285 M152.967 341.639 C 155.304 342.441,157.240 343.117,157.268 343.142 C 157.296 343.167,157.152 345.869,156.949 349.147 C 156.746 352.424,156.606 355.131,156.638 355.161 C 156.671 355.192,157.692 354.874,158.908 354.456 C 165.994 352.017,172.240 355.150,173.488 361.769 C 174.050 364.749,173.636 381.292,172.975 382.252 C 172.891 382.374,170.774 382.329,168.270 382.152 C 165.767 381.975,163.560 381.822,163.366 381.812 C 162.889 381.788,163.065 381.160,164.748 376.873 C 169.805 363.998,169.051 357.357,162.531 357.349 C 156.297 357.341,154.407 362.645,156.418 374.512 C 156.818 376.873,157.161 379.551,157.181 380.464 L 157.217 382.124 153.320 382.071 C 151.176 382.042,149.370 381.966,149.306 381.902 C 149.177 381.774,149.583 377.777,150.175 373.342 C 151.745 361.579,151.369 348.396,149.306 342.830 C 148.533 340.743,148.385 340.182,148.610 340.182 C 148.668 340.182,150.629 340.838,152.967 341.639 M50.913 342.621 C 61.730 345.394,63.899 357.424,54.587 363.005 C 53.458 363.681,52.564 364.308,52.600 364.398 C 52.636 364.487,53.579 365.293,54.696 366.189 C 58.216 369.011,61.225 372.947,65.033 379.714 C 69.931 388.420,73.031 392.140,77.017 394.098 C 83.419 397.243,92.425 395.987,93.734 391.767 C 93.889 391.265,93.732 391.148,92.244 390.653 C 87.840 389.187,88.247 384.386,92.774 384.398 C 96.967 384.409,99.768 389.359,97.783 393.250 C 94.936 398.831,80.005 401.020,72.064 397.020 C 67.147 394.544,63.380 390.373,58.002 381.449 C 50.783 369.471,48.008 366.190,45.094 366.190 L 44.398 366.190 44.544 370.026 C 44.722 374.668,45.196 377.009,46.539 379.875 C 47.779 382.520,48.189 382.307,42.188 382.126 L 37.191 381.975 37.191 381.363 C 37.191 381.026,37.570 379.142,38.034 377.176 L 38.876 373.602 38.877 364.499 C 38.878 354.277,38.589 351.698,36.776 345.712 C 36.289 344.104,35.891 342.599,35.891 342.367 C 35.891 341.769,48.416 341.981,50.913 342.621 M182.435 345.927 C 182.430 347.988,182.288 351.723,182.121 354.226 C 181.839 358.435,181.956 362.016,182.388 362.449 C 182.486 362.547,183.348 362.498,184.303 362.339 C 188.343 361.670,190.267 359.169,190.794 353.901 L 190.969 352.146 193.932 352.146 C 197.388 352.146,197.287 352.057,196.912 354.760 C 196.399 358.463,194.544 361.019,190.765 363.230 C 188.685 364.446,188.647 364.214,191.269 366.268 C 194.423 368.739,201.084 376.742,203.353 380.785 L 204.173 382.247 201.891 382.413 C 195.802 382.856,195.039 382.299,192.880 375.838 C 190.409 368.445,187.954 365.951,183.433 366.240 L 182.185 366.320 182.110 369.163 C 182.021 372.591,182.426 374.760,183.870 378.593 C 184.445 380.119,184.915 381.522,184.915 381.711 C 184.915 381.983,183.936 382.055,180.210 382.055 L 175.504 382.055 175.681 380.689 C 175.778 379.938,176.161 377.510,176.531 375.293 C 177.861 367.327,177.491 359.285,175.282 348.100 C 174.716 345.231,174.252 342.747,174.252 342.580 C 174.252 342.331,180.622 341.987,182.185 342.151 C 182.345 342.168,182.441 343.612,182.435 345.927 M265.279 343.498 C 265.278 343.605,265.054 344.863,264.780 346.294 C 264.159 349.540,263.865 353.079,264.091 354.586 L 264.264 355.736 266.380 354.820 C 275.567 350.838,283.631 356.717,283.582 367.360 C 283.541 376.299,278.740 381.518,270.546 381.531 C 269.223 381.533,268.140 381.578,268.140 381.632 C 268.140 381.685,268.311 382.211,268.518 382.800 C 268.884 383.837,268.878 383.876,268.323 384.002 C 264.990 384.759,262.814 385.176,262.187 385.176 L 261.430 385.176 261.278 382.250 C 261.194 380.640,261.060 377.100,260.979 374.382 C 260.582 360.953,260.143 355.787,258.850 349.357 C 257.736 343.818,257.501 344.346,261.324 343.801 C 265.048 343.271,265.280 343.253,265.279 343.498 M45.837 346.662 C 44.267 347.397,44.213 347.682,44.213 355.252 C 44.213 363.009,44.115 362.701,46.512 362.483 C 53.327 361.865,56.803 352.963,52.114 348.135 C 50.314 346.281,47.873 345.708,45.837 346.662 M357.997 347.177 C 362.574 349.296,361.276 354.208,356.214 353.925 C 353.919 353.797,354.131 354.254,357.187 356.017 C 362.222 358.922,363.719 361.135,363.719 365.675 C 363.719 372.571,359.854 375.578,350.022 376.329 C 346.206 376.620,344.756 376.996,343.369 378.055 C 342.141 378.991,342.314 379.023,345.942 378.527 C 358.958 376.747,368.293 383.321,364.299 391.454 C 360.843 398.491,342.488 400.997,337.329 395.136 C 332.600 389.764,340.970 381.792,347.719 385.241 C 352.475 387.670,349.725 392.598,343.627 392.573 C 340.682 392.561,340.487 392.743,341.837 394.247 C 345.674 398.522,356.627 393.351,356.646 387.256 C 356.661 382.509,352.723 381.236,341.725 382.432 C 339.498 382.674,337.219 382.834,336.660 382.788 L 335.645 382.705 339.019 379.690 C 343.631 375.569,343.407 375.936,341.998 374.813 C 336.233 370.212,335.156 366.052,338.540 361.443 C 340.579 358.665,347.231 355.267,350.630 355.267 C 351.647 355.267,351.705 354.955,350.943 353.591 C 348.950 350.024,354.077 345.362,357.997 347.177 M139.615 350.550 C 142.015 351.297,143.992 352.809,144.932 354.616 C 145.425 355.563,147.153 381.270,146.758 381.781 C 146.633 381.942,142.348 382.537,141.157 382.558 L 140.182 382.575 140.182 380.989 L 140.182 379.402 139.337 379.915 C 138.872 380.196,137.789 380.856,136.931 381.381 C 130.434 385.356,123.653 382.795,122.870 376.071 C 121.972 368.363,129.520 362.870,138.101 364.985 C 140.936 365.684,140.807 365.786,140.614 363.004 C 140.135 356.077,137.181 352.436,132.831 353.410 C 129.860 354.075,127.762 357.150,129.259 358.648 C 130.037 359.426,130.511 359.296,130.707 358.253 C 131.237 355.428,135.241 355.778,135.241 358.649 C 135.241 363.891,126.368 363.259,125.931 357.985 C 125.486 352.615,133.047 348.506,139.615 350.550 M301.710 350.571 C 306.661 352.112,307.901 354.476,307.925 362.421 C 307.929 363.710,308.106 366.929,308.319 369.573 C 308.531 372.218,308.736 376.014,308.774 378.008 L 308.843 381.634 307.687 381.972 C 307.051 382.159,305.625 382.387,304.518 382.479 L 302.505 382.647 302.324 381.050 C 302.109 379.152,302.226 379.183,300.420 380.547 C 292.626 386.431,283.816 382.309,285.064 373.362 C 286.020 366.509,291.850 363.485,300.893 365.149 C 301.670 365.293,302.419 365.410,302.557 365.410 C 302.908 365.410,302.564 360.936,302.066 359.020 C 301.086 355.251,299.054 353.306,296.119 353.328 C 292.579 353.354,289.652 356.541,291.352 358.519 C 292.127 359.420,292.711 359.267,292.944 358.102 C 293.525 355.198,297.356 355.792,297.356 358.785 C 297.356 363.193,289.833 363.440,288.184 359.086 C 286.113 353.621,294.515 348.332,301.710 350.571 M238.663 352.946 C 240.597 353.882,242.075 356.175,242.798 359.360 C 243.476 362.346,243.392 362.308,244.519 360.149 C 246.436 356.476,248.508 354.815,251.479 354.568 C 258.261 354.007,260.317 366.167,255.159 376.333 L 254.169 378.283 252.182 378.359 C 251.089 378.401,250.195 378.362,250.195 378.273 C 250.195 378.184,250.541 377.323,250.963 376.360 C 253.136 371.410,252.920 362.721,250.609 362.141 C 248.077 361.506,246.019 365.345,244.604 373.347 C 244.016 376.672,244.024 376.660,242.173 376.995 L 240.611 377.277 240.461 375.050 C 239.930 367.133,238.335 361.871,236.312 361.363 C 232.691 360.454,231.895 368.228,234.702 377.086 C 235.219 378.716,235.595 380.097,235.538 380.154 C 235.330 380.361,227.478 382.572,227.362 382.455 C 227.296 382.389,227.390 380.423,227.571 378.085 C 228.209 369.843,227.441 359.755,225.869 355.722 C 225.653 355.166,226.914 355.094,228.758 355.559 C 229.846 355.833,229.982 355.805,230.982 355.103 C 234.312 352.768,234.935 352.474,236.654 352.429 C 237.145 352.416,238.049 352.649,238.663 352.946 M102.544 353.025 C 104.790 353.989,106.789 358.136,106.910 362.083 C 106.925 362.550,107.003 362.476,107.274 361.740 C 108.697 357.874,112.349 354.657,115.345 354.630 C 121.500 354.575,123.444 363.006,119.857 374.204 C 118.752 377.651,117.906 378.547,115.767 378.535 C 113.723 378.523,113.693 378.467,114.642 376.401 C 116.802 371.696,116.566 362.029,114.291 362.029 C 112.829 362.029,111.399 363.290,110.409 365.455 C 109.798 366.789,109.415 368.281,108.071 374.563 L 107.643 376.563 106.032 376.930 C 104.018 377.388,104.214 377.727,103.992 373.395 C 103.600 365.732,102.135 361.896,99.392 361.348 C 96.261 360.722,95.736 369.658,98.444 377.487 C 98.936 378.909,99.289 380.122,99.228 380.182 C 99.005 380.406,91.190 382.564,91.063 382.437 C 90.991 382.365,91.072 380.641,91.243 378.604 C 91.964 370.030,91.638 365.595,89.570 355.814 C 89.434 355.172,90.744 355.120,93.115 355.672 C 93.625 355.791,94.071 355.587,95.103 354.765 C 97.619 352.762,100.410 352.109,102.544 353.025 M86.706 358.062 C 86.356 363.507,86.499 369.216,87.096 373.602 C 88.192 381.660,88.384 380.879,85.242 381.163 L 83.339 381.336 82.999 380.010 L 82.660 378.685 80.797 379.700 C 75.827 382.407,71.882 382.057,68.805 378.635 C 66.049 375.569,65.432 373.434,65.022 365.534 C 64.881 362.819,64.593 359.896,64.381 359.038 C 63.763 356.523,63.606 356.691,66.905 356.342 C 68.514 356.172,70.387 355.962,71.066 355.876 C 72.613 355.680,72.603 355.538,71.472 361.758 C 69.381 373.247,70.954 377.709,76.837 376.974 C 82.348 376.285,83.437 369.731,79.826 358.985 C 79.264 357.311,78.804 355.747,78.804 355.509 C 78.804 355.098,81.371 354.751,86.056 354.528 L 86.936 354.486 86.706 358.062 M222.859 354.660 L 223.482 354.827 223.249 359.403 C 222.920 365.881,223.013 369.405,223.625 373.732 C 224.744 381.642,224.904 380.972,221.874 381.078 L 219.951 381.144 219.563 379.974 C 219.349 379.330,219.150 378.772,219.119 378.734 C 219.088 378.696,218.373 379.081,217.529 379.589 C 212.865 382.398,208.930 382.187,205.703 378.955 C 202.673 375.921,201.957 373.686,201.570 366.060 C 201.425 363.199,201.134 360.156,200.923 359.298 C 200.231 356.486,199.954 356.719,204.583 356.210 C 206.818 355.965,208.716 355.833,208.801 355.918 C 208.886 356.003,208.556 358.437,208.070 361.326 C 206.217 372.317,206.906 375.992,210.978 376.837 C 218.480 378.395,220.570 370.593,216.011 358.050 C 215.501 356.648,215.085 355.457,215.085 355.404 C 215.085 355.225,216.647 354.963,218.927 354.761 C 222.128 354.476,222.168 354.475,222.859 354.660 M329.061 355.352 C 333.471 357.510,335.549 363.822,334.734 372.582 C 334.273 377.531,332.575 384.157,331.776 384.122 C 331.156 384.094,327.684 383.427,327.571 383.314 C 327.506 383.250,327.736 381.257,328.080 378.886 C 329.880 366.498,328.751 361.263,324.087 360.375 C 319.100 359.425,316.853 366.702,318.920 377.113 C 319.711 381.099,320.063 380.749,315.813 380.199 C 313.839 379.943,312.077 379.730,311.899 379.724 C 311.465 379.710,311.478 378.952,312.012 373.019 C 312.441 368.242,312.440 367.757,311.994 362.385 C 311.457 355.922,311.331 356.319,313.914 356.307 C 314.844 356.303,315.866 356.230,316.185 356.144 C 316.770 355.987,316.796 356.023,317.437 357.833 C 317.531 358.099,317.774 358.015,318.404 357.497 C 322.392 354.219,325.476 353.598,329.061 355.352 M269.250 357.893 C 263.629 360.675,264.005 375.351,269.758 377.750 C 274.280 379.636,277.294 375.470,277.274 367.360 C 277.257 360.257,273.479 355.799,269.250 357.893 M348.724 359.790 C 342.432 362.038,341.103 368.987,346.424 371.817 C 348.772 373.067,354.128 372.156,356.382 370.125 C 361.699 365.331,355.737 357.285,348.724 359.790 M132.525 367.602 C 127.214 369.579,127.460 378.527,132.825 378.490 C 137.193 378.459,141.856 374.247,140.964 371.137 C 140.190 368.438,135.526 366.484,132.525 367.602 M294.867 367.489 C 290.050 368.940,289.187 377.235,293.734 378.380 C 297.502 379.329,303.256 375.486,303.250 372.025 C 303.244 369.041,298.407 366.423,294.867 367.489 " stroke="none" fill="#424242" fill-rule="evenodd"></path><path id="path1" d="M188.427 90.687 C 167.730 92.528,144.546 100.229,124.087 112.061 C 121.315 113.665,118.661 115.138,118.190 115.334 C 116.938 115.858,111.574 119.623,111.571 119.981 C 111.513 127.080,109.651 132.245,105.735 136.170 C 100.833 141.083,96.993 142.387,89.597 141.651 L 85.956 141.289 84.047 143.141 C 81.381 145.728,74.763 153.150,71.323 157.412 C 68.038 161.481,68.092 161.244,69.831 163.962 C 76.721 174.733,72.628 190.281,61.378 196.070 C 57.261 198.189,56.672 198.313,50.836 198.281 L 45.625 198.253 44.668 200.362 C 33.096 225.855,27.761 253.866,29.756 278.644 L 29.963 281.215 33.642 281.038 C 48.631 280.318,68.398 275.496,82.619 269.092 C 86.846 267.188,86.070 266.769,89.605 272.867 C 105.132 299.651,127.663 318.162,156.170 327.557 C 162.754 329.727,165.115 329.934,159.674 327.864 C 132.932 317.690,113.341 296.567,104.824 268.725 C 104.031 266.131,103.979 266.044,102.915 265.507 C 101.146 264.613,99.420 263.243,98.800 262.240 C 98.118 261.137,98.049 261.218,101.078 259.554 C 106.313 256.680,120.392 246.718,127.246 241.037 C 155.340 217.756,176.072 187.294,187.567 152.406 C 189.428 146.756,191.052 142.026,191.175 141.895 C 191.475 141.576,191.750 142.352,193.241 147.724 C 205.388 191.482,239.967 235.605,280.364 258.893 C 286.094 262.196,286.053 262.163,285.480 263.038 C 284.622 264.347,280.434 266.553,278.765 266.574 C 278.445 266.579,278.034 267.516,277.137 270.286 C 268.346 297.423,248.501 318.391,222.550 327.962 C 218.222 329.559,217.968 329.854,221.752 328.889 C 250.967 321.439,280.020 298.010,294.148 270.507 C 294.902 269.039,295.677 267.776,295.870 267.702 C 296.063 267.628,299.588 268.915,303.702 270.563 C 317.062 275.911,327.561 278.638,342.003 280.508 C 345.136 280.914,352.206 281.161,352.498 280.875 C 352.837 280.544,352.984 262.363,352.688 257.477 C 351.645 240.281,346.733 220.830,339.026 203.381 C 337.983 201.021,337.075 198.914,337.008 198.700 C 336.906 198.370,336.084 198.309,331.707 198.309 C 313.447 198.309,303.717 180.803,312.600 163.930 C 313.323 162.557,313.914 161.315,313.914 161.170 C 313.914 160.252,298.746 142.860,296.878 141.636 C 296.382 141.311,295.957 141.313,293.603 141.653 C 281.202 143.445,271.829 135.465,271.086 122.483 L 270.929 119.738 268.949 118.458 C 267.861 117.755,266.374 116.737,265.646 116.197 C 264.918 115.657,264.152 115.215,263.944 115.215 C 263.735 115.215,262.708 114.686,261.661 114.040 C 253.824 109.209,240.645 102.753,233.290 100.142 C 230.787 99.254,227.568 98.084,226.138 97.542 C 216.595 93.929,195.368 90.070,188.427 90.687 M236.873 125.096 C 245.480 127.848,251.264 136.930,250.207 146.034 C 247.715 167.513,218.784 170.114,212.599 149.415 C 208.158 134.551,222.260 120.423,236.873 125.096 M155.720 124.708 C 167.355 127.451,173.631 140.099,169.042 151.559 C 161.123 171.336,132.082 165.311,132.124 143.899 C 132.149 131.301,143.731 121.881,155.720 124.708 M109.327 164.717 C 121.416 170.691,117.446 188.282,104.000 188.319 C 89.946 188.357,87.473 168.090,101.040 164.060 C 103.732 163.261,106.888 163.511,109.327 164.717 M283.061 164.575 C 295.216 170.263,291.154 188.557,277.736 188.557 C 265.600 188.557,261.500 170.356,272.432 165.008 C 275.913 163.305,279.991 163.139,283.061 164.575 M142.759 185.668 C 153.149 188.902,154.569 204.172,144.904 208.744 C 137.612 212.194,129.749 208.775,127.564 201.204 C 124.868 191.867,133.691 182.846,142.759 185.668 M246.915 185.706 C 256.090 188.540,258.264 201.705,250.526 207.581 C 242.628 213.580,231.886 208.608,231.037 198.561 C 230.303 189.880,238.623 183.144,246.915 185.706 M104.062 211.357 C 119.519 216.742,120.741 238.646,105.982 245.764 C 90.274 253.339,74.488 236.315,82.358 220.286 C 86.232 212.395,95.774 208.470,104.062 211.357 M287.471 210.776 C 296.503 212.505,302.838 220.884,302.095 230.121 C 300.381 251.415,271.516 254.008,266.533 233.315 C 263.377 220.210,274.455 208.286,287.471 210.776 M54.042 219.776 C 63.081 221.861,66.537 235.047,59.685 241.309 C 51.265 249.005,38.418 242.694,39.074 231.184 C 39.484 223.994,47.115 218.178,54.042 219.776 M333.307 219.787 C 344.856 221.889,347.057 238.352,336.465 243.407 C 325.124 248.820,314.265 235.723,321.199 224.994 C 323.642 221.215,328.850 218.975,333.307 219.787 M153.446 237.581 L 153.446 254.616 170.481 254.616 L 187.516 254.616 187.516 237.753 L 187.516 220.890 180.299 220.719 C 176.330 220.624,168.664 220.547,163.264 220.547 L 153.446 220.546 153.446 237.581 M195.059 237.581 L 195.059 254.616 211.922 254.616 L 228.785 254.616 228.957 245.991 C 229.051 241.248,229.129 233.582,229.129 228.956 L 229.129 220.546 212.094 220.546 L 195.059 220.546 195.059 237.581 M168.336 262.869 L 153.446 262.943 153.446 279.846 L 153.446 296.749 170.483 296.749 L 187.520 296.749 187.453 279.779 L 187.386 262.809 185.306 262.802 C 184.161 262.798,176.525 262.828,168.336 262.869 M200.195 262.874 L 195.059 262.950 195.059 279.808 L 195.059 296.666 201.495 296.837 C 210.262 297.070,228.814 297.054,228.943 296.814 C 229.000 296.707,228.992 288.982,228.925 279.649 L 228.803 262.679 217.067 262.738 C 210.613 262.771,203.020 262.832,200.195 262.874 M148.766 340.739 C 148.766 340.934,149.106 341.970,149.521 343.043 C 151.684 348.640,151.896 361.859,150.041 375.407 C 149.768 377.401,149.545 379.712,149.545 380.543 L 149.545 382.055 153.316 382.055 L 157.087 382.055 157.087 380.548 C 157.087 379.720,156.770 377.233,156.383 375.022 C 154.260 362.909,156.140 357.321,162.342 357.307 C 169.137 357.292,170.027 363.820,164.971 376.593 C 164.319 378.238,163.636 380.063,163.452 380.649 L 163.118 381.714 167.932 382.030 C 170.580 382.205,172.782 382.311,172.826 382.266 C 173.477 381.604,173.907 365.061,173.354 361.959 C 172.084 354.834,165.572 351.836,158.024 354.899 L 156.489 355.522 156.664 352.078 C 156.761 350.184,156.910 347.406,156.997 345.904 L 157.155 343.173 153.285 341.901 C 151.156 341.201,149.269 340.575,149.090 340.508 C 148.911 340.441,148.765 340.545,148.766 340.739 M35.959 342.588 C 36.458 343.902,37.555 347.882,37.967 349.873 C 38.984 354.787,39.141 356.798,39.133 364.759 L 39.125 372.562 38.158 377.105 C 37.626 379.603,37.191 381.739,37.191 381.851 C 37.191 381.963,39.473 382.055,42.263 382.055 C 45.052 382.055,47.334 382.008,47.334 381.952 C 47.334 381.895,46.928 380.988,46.432 379.936 C 45.242 377.412,44.817 375.667,44.463 371.837 C 44.011 366.964,44.108 366.339,45.333 366.238 C 48.015 366.017,50.214 368.499,56.545 378.894 C 66.329 394.960,71.415 398.965,82.024 398.958 C 93.074 398.951,100.389 394.023,97.959 388.223 C 96.362 384.412,91.040 383.200,89.519 386.301 C 88.677 388.018,89.691 389.588,92.220 390.483 C 94.294 391.217,94.379 391.781,92.672 393.488 C 90.865 395.295,88.614 395.971,84.525 395.933 C 76.418 395.859,71.797 392.121,65.281 380.364 C 61.407 373.376,57.684 368.599,53.596 365.373 C 52.223 364.290,52.271 364.167,54.563 362.889 C 63.991 357.629,61.339 344.966,50.325 342.654 C 47.891 342.143,35.768 342.087,35.959 342.588 M174.440 342.978 C 174.503 343.371,174.950 345.683,175.433 348.114 C 177.570 358.876,177.932 368.273,176.519 376.324 C 176.130 378.536,175.813 380.672,175.813 381.070 L 175.813 381.795 180.358 381.795 L 184.902 381.795 184.097 379.649 C 182.030 374.138,181.460 370.786,181.965 367.103 L 182.135 365.862 183.720 366.015 C 188.714 366.495,190.714 368.658,193.120 376.175 C 194.490 380.456,195.211 381.596,196.835 382.047 C 197.964 382.360,203.901 382.409,203.901 382.104 C 203.901 381.335,200.574 376.640,196.864 372.174 C 194.661 369.522,193.430 368.295,189.922 365.256 C 188.805 364.289,188.850 364.198,191.097 362.863 C 194.621 360.769,196.538 357.913,196.807 354.354 L 196.954 352.406 195.916 352.406 C 195.344 352.406,194.000 352.332,192.928 352.241 L 190.979 352.076 190.823 354.257 C 190.450 359.456,187.605 362.549,183.196 362.549 L 182.092 362.549 181.910 361.090 C 181.708 359.471,181.836 355.555,182.336 348.098 C 182.766 341.670,183.174 342.263,178.328 342.263 L 174.324 342.263 174.440 342.978 M263.199 343.708 C 262.984 343.755,261.785 343.929,260.533 344.095 C 257.799 344.458,257.899 344.094,259.024 349.578 C 260.320 355.894,260.644 359.834,261.138 375.293 C 261.305 380.514,261.527 384.880,261.633 384.995 C 261.797 385.176,268.361 383.992,268.626 383.734 C 268.678 383.683,268.590 383.267,268.431 382.809 C 267.994 381.557,268.017 381.535,269.766 381.529 C 277.252 381.506,281.655 378.114,283.094 371.261 C 285.614 359.257,276.960 350.585,266.678 354.811 C 265.373 355.348,264.216 355.787,264.107 355.787 C 263.739 355.787,264.204 348.171,264.714 345.839 L 265.211 343.563 264.400 343.593 C 263.954 343.610,263.414 343.662,263.199 343.708 M50.045 346.529 C 53.883 348.133,55.548 353.399,53.534 357.565 C 51.977 360.786,46.875 363.695,44.763 362.565 C 44.091 362.205,43.884 348.241,44.538 347.412 C 45.466 346.236,48.269 345.787,50.045 346.529 M353.836 347.377 C 351.032 348.859,349.896 351.673,351.229 353.836 C 352.073 355.208,352.089 355.173,350.538 355.378 C 345.153 356.093,339.460 359.468,337.713 362.981 C 335.686 367.061,337.031 370.777,341.894 374.529 C 343.686 375.912,343.841 375.553,339.987 378.952 C 335.666 382.764,335.899 382.540,336.072 382.713 C 336.155 382.796,338.664 382.610,341.648 382.300 C 353.346 381.085,357.305 382.546,356.755 387.875 C 356.061 394.602,342.294 399.182,341.076 393.091 L 340.923 392.328 343.739 392.328 C 348.183 392.328,350.042 391.096,349.732 388.354 C 349.138 383.084,338.471 383.775,336.393 389.218 C 334.343 394.585,338.654 398.056,347.334 398.028 C 359.504 397.989,366.568 393.196,364.775 386.195 C 363.205 380.068,355.487 377.162,344.993 378.745 C 342.107 379.181,341.975 379.162,342.652 378.414 C 343.835 377.108,345.612 376.585,350.225 376.188 C 358.947 375.437,362.437 373.201,363.588 367.632 C 364.541 363.022,362.347 358.961,357.477 356.319 C 355.444 355.216,354.226 354.327,354.226 353.946 C 354.226 353.842,355.336 353.716,356.692 353.666 C 359.777 353.553,360.598 352.973,360.598 350.904 C 360.598 347.915,356.683 345.873,353.836 347.377 M133.098 350.470 C 128.201 351.657,125.213 355.179,126.140 358.671 C 127.369 363.300,135.710 363.158,135.140 358.518 C 134.802 355.765,131.526 355.558,130.849 358.247 C 130.512 359.584,130.382 359.643,129.424 358.889 C 127.210 357.148,130.330 353.195,133.923 353.188 C 137.922 353.181,140.356 356.696,140.641 362.887 L 140.770 365.697 140.151 365.552 C 129.924 363.169,123.378 366.601,123.061 374.512 C 122.739 382.572,129.961 385.656,137.701 380.763 C 140.252 379.150,140.182 379.146,140.182 380.884 L 140.182 382.315 141.472 382.315 C 144.087 382.315,146.684 381.780,146.684 381.242 C 146.684 380.973,146.509 377.564,146.295 373.666 C 146.080 369.769,145.802 364.230,145.676 361.357 C 145.417 355.458,145.179 354.570,143.400 352.878 C 140.875 350.477,136.901 349.548,133.098 350.470 M295.048 350.428 C 289.397 351.801,286.138 357.413,289.267 360.383 C 292.475 363.428,297.269 362.431,297.269 358.718 C 297.269 355.893,293.822 355.327,293.059 358.027 C 292.637 359.521,292.293 359.676,291.393 358.777 C 289.457 356.841,292.487 353.186,296.028 353.186 C 300.013 353.186,302.119 356.129,302.732 362.557 C 303.047 365.872,303.256 365.681,299.943 365.114 C 292.001 363.754,286.768 366.453,285.306 372.663 C 283.191 381.647,292.237 386.362,300.303 380.482 C 302.509 378.873,302.471 378.868,302.471 380.792 L 302.471 382.391 304.876 382.245 C 309.248 381.978,309.153 382.280,308.311 371.261 C 308.093 368.401,307.820 363.778,307.706 360.988 C 307.533 356.791,307.408 355.715,306.978 354.746 C 305.453 351.309,299.817 349.269,295.048 350.428 M98.136 353.132 C 97.397 353.396,96.361 353.955,95.834 354.374 C 93.770 356.018,93.824 356.002,91.809 355.569 C 89.457 355.064,89.528 354.838,90.494 359.743 C 91.699 365.861,91.982 369.860,91.598 375.360 C 91.254 380.275,91.207 382.315,91.438 382.315 C 91.689 382.315,98.953 380.194,99.059 380.089 C 99.114 380.036,98.741 378.730,98.231 377.187 C 95.616 369.284,96.107 361.248,99.204 361.248 C 102.158 361.248,104.291 367.215,104.291 375.478 C 104.291 377.100,104.315 377.164,104.876 377.029 C 105.198 376.952,105.895 376.810,106.426 376.714 C 107.570 376.507,107.608 376.416,108.578 371.561 C 109.919 364.851,111.545 362.033,114.077 362.030 C 116.599 362.027,117.086 371.347,114.824 376.329 L 113.936 378.283 115.511 378.362 C 117.523 378.461,118.182 378.044,119.025 376.139 C 121.148 371.338,122.104 363.215,120.982 359.518 C 118.762 352.211,110.541 353.620,107.371 361.850 L 106.989 362.841 106.438 360.048 C 105.229 353.919,102.439 351.595,98.136 353.132 M234.108 353.191 C 233.485 353.474,232.388 354.173,231.669 354.746 C 230.255 355.871,229.861 355.947,227.842 355.481 C 226.131 355.086,225.914 355.306,226.406 356.940 C 227.702 361.247,228.250 370.235,227.727 378.609 C 227.599 380.647,227.576 382.315,227.675 382.315 C 228.491 382.315,235.371 380.090,235.371 379.826 C 235.371 379.645,234.974 378.229,234.490 376.679 C 232.564 370.520,232.322 365.466,233.812 362.546 C 236.236 357.793,239.976 364.103,240.480 373.797 C 240.575 375.621,240.732 377.113,240.829 377.113 C 240.926 377.113,241.653 376.983,242.445 376.824 L 243.884 376.535 244.346 373.898 C 245.723 366.038,247.655 362.029,250.066 362.029 C 252.787 362.029,253.583 370.742,251.322 375.786 C 250.025 378.681,249.945 378.414,252.107 378.414 L 254.006 378.414 255.221 375.878 C 259.990 365.923,258.203 354.634,251.867 354.691 C 248.910 354.718,246.626 356.457,244.634 360.201 C 243.924 361.535,243.408 362.253,243.326 362.021 C 243.252 361.811,243.007 360.819,242.781 359.818 C 241.447 353.900,238.130 351.366,234.108 353.191 M322.424 354.916 C 321.739 355.154,320.367 356.031,319.370 356.868 C 317.232 358.663,317.364 358.628,317.144 357.456 C 316.922 356.274,316.717 356.207,314.001 356.433 L 311.760 356.620 311.992 359.909 C 312.282 364.028,312.278 371.176,311.983 375.951 L 311.758 379.600 315.477 380.050 C 317.523 380.297,319.248 380.448,319.311 380.385 C 319.374 380.322,319.109 378.539,318.723 376.422 C 316.898 366.431,318.840 359.970,323.579 360.274 C 328.564 360.593,330.156 367.009,328.234 379.035 C 327.502 383.617,327.413 383.252,329.345 383.588 C 332.360 384.113,332.435 384.030,333.630 378.804 C 337.197 363.208,331.783 351.668,322.424 354.916 M81.298 355.039 C 80.024 355.162,78.936 355.307,78.881 355.362 C 78.826 355.418,79.306 357.043,79.949 358.975 C 83.745 370.397,82.262 377.113,75.943 377.113 C 70.581 377.113,69.440 373.232,71.390 361.627 C 71.890 358.652,72.244 356.163,72.177 356.095 C 71.994 355.913,64.863 356.602,64.479 356.839 C 64.215 357.003,64.236 357.528,64.583 359.471 C 64.821 360.806,65.130 364.064,65.268 366.710 C 65.933 379.437,71.809 384.432,80.561 379.711 C 82.710 378.552,82.733 378.556,83.198 380.189 C 83.513 381.297,83.533 381.312,84.477 381.171 C 85.004 381.093,85.967 380.957,86.616 380.870 C 88.005 380.684,87.966 381.237,87.058 374.642 C 86.435 370.124,86.265 361.837,86.699 357.152 L 86.921 354.746 85.268 354.782 C 84.359 354.801,82.573 354.917,81.298 355.039 M217.313 355.043 C 215.015 355.338,215.102 355.012,216.343 358.706 C 220.177 370.113,219.071 376.576,213.207 377.041 C 207.285 377.512,205.859 373.661,207.779 362.379 C 209.008 355.160,209.412 355.785,203.931 356.431 C 200.060 356.888,200.421 356.525,201.035 359.339 C 201.359 360.825,201.638 363.574,201.799 366.861 C 202.074 372.495,202.368 373.948,203.720 376.333 C 206.771 381.715,211.716 382.848,217.472 379.484 L 219.196 378.476 219.513 379.610 C 219.963 381.218,220.195 381.343,222.145 381.026 C 223.054 380.879,223.885 380.757,223.992 380.756 C 224.338 380.753,224.201 378.545,223.617 374.728 C 222.983 370.583,222.847 364.586,223.243 358.322 L 223.470 354.746 221.293 354.779 C 220.095 354.797,218.304 354.916,217.313 355.043 M273.320 357.856 C 277.251 359.862,278.597 366.835,276.448 374.062 C 274.203 381.611,266.182 378.839,265.307 370.211 C 264.419 361.450,268.383 355.338,273.320 357.856 M353.951 359.577 C 356.736 360.405,358.927 363.628,358.554 366.352 C 357.505 374.004,343.640 374.785,343.093 367.223 C 342.718 362.041,348.511 357.962,353.951 359.577 M138.003 367.984 C 142.790 370.249,141.966 375.049,136.312 377.826 C 131.159 380.357,127.409 376.965,128.979 371.193 C 129.933 367.685,134.179 366.175,138.003 367.984 M299.364 367.625 C 304.805 369.545,304.378 374.981,298.570 377.736 C 293.770 380.012,290.531 378.134,290.823 373.243 C 291.110 368.438,294.796 366.014,299.364 367.625 " stroke="none" fill="#8cc43c" fill-rule="evenodd"></path><path id="path2" d="M161.248 48.981 C 151.570 53.400,140.932 61.406,135.548 68.323 L 134.697 69.415 136.204 70.599 C 151.801 82.850,175.798 66.989,166.702 50.441 C 164.857 47.083,165.201 47.176,161.248 48.981 M216.817 48.440 C 212.869 53.693,212.755 60.924,216.529 66.601 C 222.580 75.703,237.190 77.652,246.140 70.553 L 247.602 69.392 246.493 68.054 C 240.252 60.524,229.979 52.890,220.521 48.754 C 217.358 47.370,217.604 47.391,216.817 48.440 " stroke="none" fill="#eaeaea" fill-rule="evenodd"></path><path id="path3" d="M136.395 67.165 L 135.631 68.010 136.476 67.247 C 136.941 66.826,137.321 66.446,137.321 66.401 C 137.321 66.200,137.107 66.377,136.395 67.165 M243.693 129.080 C 243.693 129.125,244.073 129.505,244.538 129.925 L 245.384 130.689 244.620 129.844 C 243.908 129.056,243.693 128.879,243.693 129.080 M92.656 141.929 C 93.052 141.989,93.637 141.987,93.957 141.926 C 94.277 141.864,93.953 141.815,93.238 141.817 C 92.523 141.819,92.261 141.869,92.656 141.929 M250.261 143.953 C 250.264 144.525,250.317 144.729,250.379 144.405 C 250.441 144.082,250.439 143.614,250.374 143.365 C 250.309 143.116,250.258 143.381,250.261 143.953 M244.327 158.192 L 243.563 159.038 244.408 158.274 C 245.196 157.562,245.373 157.347,245.172 157.347 C 245.127 157.347,244.747 157.728,244.327 158.192 M73.148 176.203 C 73.150 176.775,73.204 176.978,73.266 176.655 C 73.328 176.331,73.326 175.863,73.261 175.615 C 73.196 175.366,73.145 175.631,73.148 176.203 M290.307 176.073 C 290.307 176.573,290.361 176.778,290.426 176.528 C 290.492 176.278,290.492 175.868,290.426 175.618 C 290.361 175.367,290.307 175.572,290.307 176.073 M250.715 187.858 C 250.715 187.902,251.096 188.283,251.560 188.703 L 252.406 189.467 251.642 188.622 C 250.930 187.834,250.715 187.657,250.715 187.858 M251.609 206.567 L 250.845 207.412 251.691 206.648 C 252.155 206.228,252.536 205.848,252.536 205.803 C 252.536 205.602,252.321 205.779,251.609 206.567 M331.017 219.690 C 331.341 219.752,331.809 219.750,332.058 219.685 C 332.306 219.619,332.042 219.569,331.469 219.571 C 330.897 219.574,330.694 219.628,331.017 219.690 M180.313 220.740 C 181.715 220.787,183.938 220.787,185.254 220.740 C 186.570 220.693,185.423 220.654,182.705 220.655 C 179.987 220.655,178.911 220.693,180.313 220.740 M42.379 223.602 L 41.482 224.577 42.458 223.681 C 43.366 222.847,43.553 222.627,43.354 222.627 C 43.311 222.627,42.872 223.066,42.379 223.602 M238.492 225.569 C 238.492 225.614,238.872 225.994,239.337 226.414 L 240.182 227.178 239.418 226.333 C 238.706 225.545,238.492 225.368,238.492 225.569 M140.438 229.064 L 137.451 232.120 140.507 229.133 C 143.346 226.359,143.681 226.008,143.494 226.008 C 143.456 226.008,142.081 227.383,140.438 229.064 M116.329 228.739 C 116.331 229.454,116.382 229.716,116.442 229.320 C 116.501 228.925,116.500 228.340,116.438 228.020 C 116.376 227.700,116.327 228.023,116.329 228.739 M80.175 228.869 C 80.175 229.512,80.226 229.776,80.288 229.454 C 80.350 229.132,80.350 228.605,80.288 228.283 C 80.226 227.962,80.175 228.225,80.175 228.869 M265.860 228.609 C 265.860 229.109,265.914 229.314,265.979 229.064 C 266.044 228.813,266.044 228.404,265.979 228.153 C 265.914 227.903,265.860 228.108,265.860 228.609 M343.363 232.250 C 343.363 232.750,343.417 232.955,343.482 232.705 C 343.548 232.454,343.548 232.045,343.482 231.795 C 343.417 231.544,343.363 231.749,343.363 232.250 M63.265 232.640 C 63.267 233.212,63.321 233.415,63.383 233.092 C 63.445 232.768,63.443 232.300,63.378 232.052 C 63.313 231.803,63.262 232.068,63.265 232.640 M245.514 232.591 C 245.514 232.636,245.894 233.016,246.359 233.436 L 247.204 234.200 246.440 233.355 C 245.728 232.567,245.514 232.390,245.514 232.591 M194.916 245.514 C 194.916 250.592,194.951 252.669,194.993 250.130 C 195.036 247.591,195.036 243.436,194.993 240.897 C 194.951 238.358,194.916 240.436,194.916 245.514 M296.735 242.328 L 295.839 243.303 296.814 242.407 C 297.722 241.572,297.909 241.352,297.710 241.352 C 297.667 241.352,297.228 241.791,296.735 242.328 M85.046 241.694 C 85.046 241.739,85.426 242.119,85.891 242.539 L 86.736 243.303 85.972 242.458 C 85.260 241.670,85.046 241.493,85.046 241.694 M228.980 248.895 C 228.980 252.113,229.017 253.430,229.063 251.821 C 229.108 250.211,229.108 247.578,229.063 245.969 C 229.017 244.360,228.980 245.676,228.980 248.895 M283.290 247.520 C 283.683 247.580,284.327 247.580,284.720 247.520 C 285.114 247.461,284.792 247.412,284.005 247.412 C 283.218 247.412,282.897 247.461,283.290 247.520 M169.489 262.873 C 171.947 262.916,176.044 262.916,178.592 262.874 C 181.140 262.831,179.129 262.796,174.122 262.796 C 169.116 262.796,167.031 262.831,169.489 262.873 M194.916 263.008 C 194.847 263.188,194.823 266.553,194.864 270.485 L 194.937 277.633 194.998 270.292 L 195.059 262.950 200.195 262.874 L 205.332 262.797 200.187 262.738 C 196.236 262.693,195.013 262.755,194.916 263.008 M228.984 283.095 C 228.984 287.386,229.019 289.178,229.063 287.077 C 229.107 284.976,229.107 281.465,229.063 279.275 C 229.020 277.085,228.984 278.804,228.984 283.095 M161.573 296.944 C 166.115 296.984,173.547 296.984,178.088 296.944 C 182.630 296.904,178.914 296.871,169.831 296.871 C 160.748 296.871,157.032 296.904,161.573 296.944 M197.217 296.943 C 198.476 296.991,200.465 296.990,201.638 296.942 C 202.811 296.894,201.782 296.855,199.350 296.855 C 196.918 296.856,195.958 296.895,197.217 296.943 M254.616 307.282 C 253.551 308.355,252.737 309.233,252.809 309.233 C 252.880 309.233,253.811 308.355,254.876 307.282 C 255.942 306.209,256.756 305.332,256.684 305.332 C 256.612 305.332,255.682 306.209,254.616 307.282 M42.207 342.195 C 43.035 342.247,44.322 342.246,45.068 342.194 C 45.814 342.142,45.137 342.099,43.563 342.100 C 41.990 342.100,41.379 342.143,42.207 342.195 M194.207 352.333 C 194.669 352.391,195.488 352.392,196.028 352.335 C 196.568 352.279,196.190 352.232,195.189 352.231 C 194.187 352.230,193.746 352.276,194.207 352.333 M271.459 353.630 C 271.783 353.692,272.251 353.690,272.500 353.625 C 272.748 353.560,272.484 353.509,271.912 353.512 C 271.339 353.515,271.136 353.568,271.459 353.630 M208.218 355.986 C 208.376 356.091,208.571 356.352,208.653 356.567 C 208.752 356.828,208.808 356.763,208.822 356.372 C 208.836 355.979,208.693 355.788,208.388 355.791 C 208.107 355.793,208.042 355.868,208.218 355.986 M311.634 357.347 C 311.634 357.848,311.687 358.053,311.753 357.802 C 311.818 357.552,311.818 357.142,311.753 356.892 C 311.687 356.642,311.634 356.847,311.634 357.347 M39.072 359.688 C 39.072 360.189,39.126 360.393,39.191 360.143 C 39.256 359.893,39.256 359.483,39.191 359.233 C 39.126 358.982,39.072 359.187,39.072 359.688 M151.166 361.248 C 151.166 361.749,151.219 361.954,151.285 361.704 C 151.350 361.453,151.350 361.044,151.285 360.793 C 151.219 360.543,151.166 360.748,151.166 361.248 M130.624 362.208 C 130.875 362.273,131.284 362.273,131.534 362.208 C 131.785 362.142,131.580 362.089,131.079 362.089 C 130.579 362.089,130.374 362.142,130.624 362.208 M168.085 363.459 C 168.087 364.174,168.137 364.436,168.197 364.041 C 168.257 363.645,168.255 363.060,168.193 362.740 C 168.132 362.420,168.083 362.744,168.085 363.459 M307.733 363.069 C 307.733 363.570,307.786 363.774,307.852 363.524 C 307.917 363.274,307.917 362.864,307.852 362.614 C 307.786 362.363,307.733 362.568,307.733 363.069 M45.319 362.728 C 45.569 362.793,45.979 362.793,46.229 362.728 C 46.479 362.663,46.274 362.609,45.774 362.609 C 45.273 362.609,45.068 362.663,45.319 362.728 M302.700 364.833 C 302.614 365.349,302.652 365.592,302.797 365.448 C 302.928 365.317,302.991 364.933,302.938 364.594 C 302.856 364.074,302.820 364.110,302.700 364.833 M201.626 365.280 C 201.629 365.852,201.682 366.055,201.744 365.732 C 201.807 365.408,201.804 364.940,201.739 364.691 C 201.674 364.443,201.623 364.707,201.626 365.280 M65.085 365.800 C 65.088 366.372,65.141 366.575,65.203 366.252 C 65.266 365.928,65.263 365.460,65.198 365.212 C 65.133 364.963,65.082 365.228,65.085 365.800 M232.848 367.750 C 232.848 368.537,232.897 368.859,232.956 368.466 C 233.016 368.072,233.016 367.428,232.956 367.035 C 232.897 366.642,232.848 366.964,232.848 367.750 M192.718 367.572 C 192.718 367.616,193.098 367.997,193.563 368.417 L 194.408 369.181 193.644 368.336 C 192.932 367.548,192.718 367.371,192.718 367.572 M91.608 368.531 C 91.608 369.031,91.661 369.236,91.727 368.986 C 91.792 368.735,91.792 368.326,91.727 368.075 C 91.661 367.825,91.608 368.030,91.608 368.531 M227.889 368.531 C 227.889 369.031,227.942 369.236,228.008 368.986 C 228.073 368.735,228.073 368.326,228.008 368.075 C 227.942 367.825,227.889 368.030,227.889 368.531 M218.536 369.571 C 218.536 370.215,218.587 370.478,218.649 370.156 C 218.711 369.834,218.711 369.308,218.649 368.986 C 218.587 368.664,218.536 368.927,218.536 369.571 M39.072 369.571 C 39.072 370.072,39.126 370.276,39.191 370.026 C 39.256 369.776,39.256 369.366,39.191 369.116 C 39.126 368.865,39.072 369.070,39.072 369.571 M206.833 370.091 C 206.833 370.735,206.884 370.998,206.946 370.676 C 207.008 370.354,207.008 369.828,206.946 369.506 C 206.884 369.184,206.833 369.447,206.833 370.091 M260.924 371.261 C 260.927 371.834,260.980 372.037,261.042 371.713 C 261.104 371.390,261.102 370.922,261.037 370.673 C 260.972 370.425,260.921 370.689,260.924 371.261 M311.644 378.414 C 311.644 379.057,311.695 379.321,311.757 378.999 C 311.819 378.677,311.819 378.150,311.757 377.828 C 311.695 377.507,311.644 377.770,311.644 378.414 M261.184 379.324 C 261.187 379.896,261.240 380.099,261.302 379.776 C 261.364 379.452,261.362 378.984,261.297 378.736 C 261.232 378.487,261.181 378.752,261.184 379.324 M308.778 380.624 C 308.781 381.196,308.834 381.400,308.897 381.076 C 308.959 380.753,308.956 380.285,308.891 380.036 C 308.826 379.787,308.775 380.052,308.778 380.624 M149.350 381.144 C 149.353 381.717,149.407 381.920,149.469 381.596 C 149.531 381.273,149.529 380.805,149.463 380.556 C 149.398 380.307,149.347 380.572,149.350 381.144 M91.093 381.404 C 91.096 381.977,91.149 382.180,91.211 381.857 C 91.273 381.533,91.271 381.065,91.206 380.816 C 91.141 380.568,91.090 380.832,91.093 381.404 M227.369 381.534 C 227.369 382.035,227.422 382.240,227.487 381.990 C 227.553 381.739,227.553 381.330,227.487 381.079 C 227.422 380.829,227.369 381.034,227.369 381.534 M175.619 381.534 C 175.709 381.862,176.470 381.926,180.386 381.934 L 185.046 381.944 180.506 381.863 C 177.299 381.806,175.899 381.688,175.739 381.463 C 175.576 381.233,175.542 381.252,175.619 381.534 M292.133 383.274 C 292.383 383.340,292.793 383.340,293.043 383.274 C 293.293 383.209,293.088 383.155,292.588 383.155 C 292.087 383.155,291.882 383.209,292.133 383.274 M66.060 392.588 C 66.545 393.088,67.001 393.498,67.072 393.498 C 67.144 393.498,66.805 393.088,66.320 392.588 C 65.835 392.087,65.379 391.678,65.308 391.678 C 65.236 391.678,65.575 392.087,66.060 392.588 M83.940 396.027 C 84.405 396.085,85.166 396.085,85.631 396.027 C 86.096 395.969,85.715 395.922,84.785 395.922 C 83.856 395.922,83.475 395.969,83.940 396.027 " stroke="none" fill="#7daa3e" fill-rule="evenodd"></path><path id="path4" d="M222.909 49.773 C 223.175 50.014,225.228 50.972,225.228 50.856 C 225.228 50.708,223.265 49.675,222.984 49.675 C 222.883 49.675,222.849 49.719,222.909 49.773 M238.492 59.899 C 238.492 59.944,238.872 60.324,239.337 60.745 L 240.182 61.508 239.418 60.663 C 238.706 59.875,238.492 59.698,238.492 59.899 M242.393 63.589 C 243.602 64.805,244.650 65.800,244.722 65.800 C 244.793 65.800,243.862 64.805,242.653 63.589 C 241.443 62.373,240.395 61.378,240.324 61.378 C 240.252 61.378,241.183 62.373,242.393 63.589 M138.739 64.564 L 137.711 65.670 138.817 64.642 C 139.845 63.686,140.041 63.459,139.845 63.459 C 139.802 63.459,139.305 63.956,138.739 64.564 M245.254 66.661 C 245.254 66.706,245.634 67.086,246.099 67.507 L 246.944 68.270 246.180 67.425 C 245.468 66.637,245.254 66.460,245.254 66.661 M148.573 75.089 C 148.968 75.149,149.554 75.147,149.874 75.086 C 150.193 75.024,149.870 74.975,149.155 74.977 C 148.440 74.979,148.178 75.029,148.573 75.089 M191.616 90.431 C 191.939 90.493,192.407 90.491,192.656 90.426 C 192.904 90.361,192.640 90.310,192.068 90.313 C 191.495 90.316,191.292 90.369,191.616 90.431 M275.943 135.582 C 275.943 135.627,276.323 136.007,276.788 136.427 L 277.633 137.191 276.869 136.346 C 276.157 135.558,275.943 135.381,275.943 135.582 M170.434 143.563 C 170.434 144.493,170.482 144.873,170.539 144.408 C 170.597 143.943,170.597 143.183,170.539 142.718 C 170.482 142.253,170.434 142.633,170.434 143.563 M211.778 143.693 C 211.780 144.408,211.830 144.670,211.890 144.275 C 211.950 143.879,211.948 143.294,211.887 142.974 C 211.825 142.654,211.776 142.978,211.778 143.693 M116.333 176.333 C 116.333 177.120,116.382 177.441,116.441 177.048 C 116.501 176.655,116.501 176.011,116.441 175.618 C 116.382 175.224,116.333 175.546,116.333 176.333 M66.434 192.263 L 65.670 193.108 66.515 192.344 C 67.303 191.632,67.480 191.417,67.279 191.417 C 67.234 191.417,66.854 191.798,66.434 192.263 M255.214 197.919 C 255.214 198.706,255.263 199.028,255.323 198.635 C 255.382 198.241,255.382 197.598,255.323 197.204 C 255.263 196.811,255.214 197.133,255.214 197.919 M129.779 205.803 C 129.779 205.848,130.159 206.228,130.624 206.648 L 131.469 207.412 130.706 206.567 C 129.994 205.779,129.779 205.602,129.779 205.803 M138.687 210.062 C 138.937 210.128,139.347 210.128,139.597 210.062 C 139.847 209.997,139.642 209.943,139.142 209.943 C 138.641 209.943,138.436 209.997,138.687 210.062 M283.425 210.592 C 283.892 210.649,284.594 210.648,284.985 210.589 C 285.376 210.530,284.993 210.482,284.135 210.484 C 283.277 210.485,282.957 210.534,283.425 210.592 M110.793 215.735 C 111.278 216.235,111.734 216.645,111.806 216.645 C 111.877 216.645,111.539 216.235,111.053 215.735 C 110.568 215.234,110.113 214.824,110.041 214.824 C 109.969 214.824,110.308 215.234,110.793 215.735 M85.419 215.930 L 84.655 216.775 85.501 216.011 C 86.289 215.299,86.465 215.085,86.265 215.085 C 86.220 215.085,85.839 215.465,85.419 215.930 M51.433 219.690 C 51.757 219.752,52.225 219.750,52.474 219.685 C 52.722 219.619,52.458 219.569,51.886 219.571 C 51.313 219.574,51.110 219.628,51.433 219.690 M153.309 237.581 C 153.309 247.022,153.341 250.846,153.381 246.080 C 153.421 241.313,153.421 233.589,153.381 228.915 C 153.341 224.241,153.309 228.140,153.309 237.581 M194.914 228.479 C 194.914 232.913,194.949 234.763,194.993 232.591 C 195.036 230.419,195.036 226.790,194.993 224.529 C 194.950 222.267,194.914 224.044,194.914 228.479 M271.261 242.263 C 271.747 242.763,272.202 243.173,272.274 243.173 C 272.345 243.173,272.007 242.763,271.521 242.263 C 271.036 241.762,270.581 241.352,270.509 241.352 C 270.438 241.352,270.776 241.762,271.261 242.263 M50.260 244.660 C 50.653 244.719,51.297 244.719,51.691 244.660 C 52.084 244.600,51.762 244.551,50.975 244.551 C 50.189 244.551,49.867 244.600,50.260 244.660 M330.494 244.657 C 330.816 244.719,331.343 244.719,331.664 244.657 C 331.986 244.595,331.723 244.544,331.079 244.544 C 330.436 244.544,330.172 244.595,330.494 244.657 M181.092 254.810 C 182.351 254.858,184.340 254.858,185.513 254.810 C 186.687 254.762,185.657 254.723,183.225 254.723 C 180.793 254.723,179.833 254.762,181.092 254.810 M214.906 254.811 C 217.598 254.853,221.928 254.853,224.529 254.811 C 227.131 254.769,224.928 254.734,219.636 254.734 C 214.343 254.734,212.215 254.769,214.906 254.811 M153.305 263.004 C 153.237 263.183,153.212 269.239,153.251 276.463 L 153.321 289.597 153.383 276.273 L 153.446 262.949 159.363 262.874 L 165.280 262.799 159.355 262.739 C 154.810 262.693,153.401 262.755,153.305 263.004 M228.981 269.051 C 228.981 272.627,229.018 274.126,229.063 272.382 C 229.108 270.638,229.108 267.712,229.063 265.880 C 229.018 264.048,228.982 265.475,228.981 269.051 M194.916 287.126 C 194.916 292.490,194.951 294.685,194.993 292.003 C 195.035 289.321,195.035 284.932,194.993 282.250 C 194.951 279.568,194.916 281.762,194.916 287.126 M37.135 342.195 C 37.891 342.247,39.061 342.247,39.736 342.193 C 40.410 342.140,39.792 342.097,38.362 342.098 C 36.931 342.098,36.379 342.142,37.135 342.195 M157.147 343.823 C 157.147 344.324,157.201 344.529,157.266 344.278 C 157.332 344.028,157.332 343.618,157.266 343.368 C 157.201 343.118,157.147 343.322,157.147 343.823 M56.177 345.205 C 56.177 345.250,56.557 345.630,57.022 346.050 L 57.867 346.814 57.103 345.969 C 56.391 345.181,56.177 345.004,56.177 345.205 M196.939 353.186 C 196.939 353.687,196.993 353.891,197.058 353.641 C 197.124 353.391,197.124 352.981,197.058 352.731 C 196.993 352.480,196.939 352.685,196.939 353.186 M60.409 353.966 C 60.409 354.610,60.460 354.873,60.522 354.551 C 60.584 354.230,60.584 353.703,60.522 353.381 C 60.460 353.059,60.409 353.322,60.409 353.966 M151.207 357.087 C 151.207 359.018,151.248 359.808,151.298 358.843 C 151.348 357.877,151.348 356.297,151.298 355.332 C 151.248 354.366,151.207 355.156,151.207 357.087 M221.391 354.666 C 221.642 354.731,222.051 354.731,222.302 354.666 C 222.552 354.600,222.347 354.547,221.847 354.547 C 221.346 354.547,221.141 354.600,221.391 354.666 M181.855 356.047 C 181.855 356.547,181.908 356.752,181.974 356.502 C 182.039 356.252,182.039 355.842,181.974 355.592 C 181.908 355.341,181.855 355.546,181.855 356.047 M307.756 360.728 C 307.756 361.658,307.803 362.038,307.860 361.573 C 307.918 361.109,307.918 360.348,307.860 359.883 C 307.803 359.418,307.756 359.798,307.756 360.728 M351.170 359.347 C 351.421 359.412,351.830 359.412,352.081 359.347 C 352.331 359.282,352.126 359.228,351.625 359.228 C 351.125 359.228,350.920 359.282,351.170 359.347 M86.406 360.988 C 86.406 361.489,86.460 361.694,86.525 361.443 C 86.591 361.193,86.591 360.783,86.525 360.533 C 86.460 360.283,86.406 360.488,86.406 360.988 M39.118 364.629 C 39.118 366.990,39.157 367.955,39.205 366.775 C 39.253 365.595,39.253 363.664,39.205 362.484 C 39.157 361.304,39.118 362.269,39.118 364.629 M145.704 362.029 C 145.704 362.529,145.758 362.734,145.823 362.484 C 145.888 362.233,145.888 361.824,145.823 361.573 C 145.758 361.323,145.704 361.528,145.704 362.029 M134.005 364.549 C 134.256 364.614,134.665 364.614,134.915 364.549 C 135.166 364.483,134.961 364.430,134.460 364.430 C 133.960 364.430,133.755 364.483,134.005 364.549 M173.827 367.880 C 173.828 369.311,173.871 369.863,173.924 369.107 C 173.977 368.351,173.976 367.181,173.923 366.506 C 173.870 365.832,173.826 366.450,173.827 367.880 M260.659 366.450 C 260.659 366.951,260.712 367.155,260.777 366.905 C 260.843 366.655,260.843 366.245,260.777 365.995 C 260.712 365.744,260.659 365.949,260.659 366.450 M336.607 366.580 C 336.609 367.152,336.663 367.356,336.725 367.032 C 336.787 366.709,336.785 366.240,336.720 365.992 C 336.655 365.743,336.604 366.008,336.607 366.580 M182.214 366.143 C 182.141 366.260,182.427 366.305,182.849 366.243 C 183.270 366.181,183.615 366.086,183.615 366.030 C 183.615 365.832,182.343 365.934,182.214 366.143 M283.563 367.230 C 283.563 368.017,283.612 368.339,283.671 367.945 C 283.731 367.552,283.731 366.908,283.671 366.515 C 283.612 366.122,283.563 366.443,283.563 367.230 M201.635 367.360 C 201.637 368.075,201.687 368.337,201.747 367.942 C 201.807 367.546,201.805 366.961,201.744 366.641 C 201.682 366.322,201.633 366.645,201.635 367.360 M65.080 367.490 C 65.080 367.991,65.133 368.196,65.199 367.945 C 65.264 367.695,65.264 367.285,65.199 367.035 C 65.133 366.785,65.080 366.990,65.080 367.490 M44.291 368.270 C 44.291 369.057,44.340 369.379,44.400 368.986 C 44.459 368.592,44.459 367.949,44.400 367.555 C 44.340 367.162,44.291 367.484,44.291 368.270 M56.686 368.075 C 57.764 369.224,57.997 369.430,57.997 369.235 C 57.997 369.193,57.441 368.637,56.762 368.000 L 55.527 366.840 56.686 368.075 M334.811 369.051 C 334.811 370.267,334.856 370.764,334.911 370.156 C 334.966 369.548,334.966 368.553,334.911 367.945 C 334.856 367.337,334.811 367.835,334.811 369.051 M181.872 369.571 C 181.872 370.358,181.921 370.679,181.981 370.286 C 182.040 369.893,182.040 369.249,181.981 368.856 C 181.921 368.462,181.872 368.784,181.872 369.571 M91.637 371.261 C 91.638 372.406,91.683 372.842,91.738 372.230 C 91.793 371.618,91.792 370.682,91.737 370.149 C 91.681 369.617,91.636 370.117,91.637 371.261 M227.919 371.391 C 227.919 372.607,227.964 373.105,228.019 372.497 C 228.074 371.889,228.074 370.894,228.019 370.286 C 227.964 369.678,227.919 370.176,227.919 371.391 M260.929 373.212 C 260.929 373.856,260.980 374.119,261.042 373.797 C 261.104 373.475,261.104 372.949,261.042 372.627 C 260.980 372.305,260.929 372.568,260.929 373.212 M240.378 374.382 C 240.381 374.954,240.434 375.158,240.496 374.834 C 240.558 374.511,240.556 374.043,240.491 373.794 C 240.426 373.545,240.375 373.810,240.378 374.382 M104.112 375.163 C 104.113 376.021,104.162 376.341,104.220 375.873 C 104.278 375.406,104.276 374.703,104.217 374.313 C 104.158 373.922,104.110 374.304,104.112 375.163 M342.902 375.507 C 343.020 375.715,342.857 376.127,342.492 376.547 L 341.887 377.243 342.651 376.532 C 343.287 375.939,343.355 375.765,343.060 375.491 C 342.774 375.225,342.744 375.228,342.902 375.507 M308.787 378.544 C 308.789 379.259,308.839 379.520,308.899 379.125 C 308.959 378.730,308.957 378.145,308.896 377.825 C 308.834 377.505,308.785 377.828,308.787 378.544 M115.413 378.597 C 115.736 378.660,116.204 378.657,116.453 378.592 C 116.702 378.527,116.437 378.476,115.865 378.479 C 115.293 378.482,115.089 378.535,115.413 378.597 M302.166 380.234 C 302.221 380.806,302.312 381.274,302.368 381.274 C 302.425 381.274,302.471 380.806,302.471 380.234 C 302.471 379.662,302.380 379.194,302.269 379.194 C 302.158 379.194,302.112 379.662,302.166 380.234 M261.189 381.274 C 261.189 381.918,261.240 382.181,261.302 381.860 C 261.364 381.538,261.364 381.011,261.302 380.689 C 261.240 380.367,261.189 380.631,261.189 381.274 M45.904 382.055 L 44.343 382.227 45.823 382.271 C 46.637 382.295,47.376 382.198,47.464 382.055 C 47.553 381.912,47.589 381.814,47.545 381.838 C 47.500 381.862,46.762 381.960,45.904 382.055 M346.489 381.974 C 346.739 382.039,347.149 382.039,347.399 381.974 C 347.650 381.908,347.445 381.855,346.944 381.855 C 346.443 381.855,346.239 381.908,346.489 381.974 M199.545 382.501 C 199.938 382.561,200.582 382.561,200.975 382.501 C 201.369 382.441,201.047 382.393,200.260 382.393 C 199.473 382.393,199.151 382.441,199.545 382.501 M130.104 383.274 C 130.354 383.340,130.764 383.340,131.014 383.274 C 131.265 383.209,131.060 383.155,130.559 383.155 C 130.059 383.155,129.854 383.209,130.104 383.274 M98.370 390.377 C 98.370 390.878,98.423 391.083,98.489 390.832 C 98.554 390.582,98.554 390.172,98.489 389.922 C 98.423 389.672,98.370 389.876,98.370 390.377 M72.302 390.767 C 72.787 391.268,73.242 391.678,73.314 391.678 C 73.386 391.678,73.047 391.268,72.562 390.767 C 72.077 390.267,71.621 389.857,71.549 389.857 C 71.478 389.857,71.816 390.267,72.302 390.767 M343.108 392.644 C 343.501 392.704,344.145 392.704,344.538 392.644 C 344.932 392.584,344.610 392.536,343.823 392.536 C 343.036 392.536,342.715 392.584,343.108 392.644 M345.319 395.762 C 345.640 395.824,346.167 395.824,346.489 395.762 C 346.811 395.700,346.547 395.650,345.904 395.650 C 345.260 395.650,344.997 395.700,345.319 395.762 M346.099 398.368 C 346.564 398.425,347.324 398.425,347.789 398.368 C 348.254 398.310,347.874 398.263,346.944 398.263 C 346.014 398.263,345.634 398.310,346.099 398.368 M81.730 399.139 C 81.980 399.204,82.389 399.204,82.640 399.139 C 82.890 399.074,82.685 399.020,82.185 399.020 C 81.684 399.020,81.479 399.074,81.730 399.139 " stroke="none" fill="#647d44" fill-rule="evenodd"></path></g></svg>